<svg width="134" height="40" viewBox="0 0 134 40" fill="none" xmlns="http://www.w3.org/2000/svg">
<g id="Group 10428 1" clip-path="url(#clip0_4720_380655)">
<path id="Vector" d="M126 0H7C3.13401 0 0 3.13401 0 7V33C0 36.866 3.13401 40 7 40H126C129.866 40 133 36.866 133 33V7C133 3.13401 129.866 0 126 0Z" fill="black"/>
<path id="Vector_2" d="M13.9624 8.99992C11.6448 9.41174 10.6291 10.4254 10.3001 12.6429C10.0712 14.2163 10.2143 22.2204 10.4861 22.9807C11.0154 24.438 11.9739 25.1666 13.9624 25.5995C14.9065 25.8001 26.1078 25.9163 28.1392 25.7368C30.7143 25.515 32.0733 24.8709 32.7886 23.5615L33.1319 22.9279L33.1748 17.6482C33.2034 13.1076 33.1891 12.2628 32.9889 11.6081C32.5597 10.1826 31.4009 9.31671 29.4983 8.99992C28.0963 8.76761 15.2928 8.76761 13.9624 8.99992ZM18.5402 11.9671C18.8406 13.192 20.1281 14.0051 21.7589 14.0051C23.3755 14.0051 24.663 13.1815 24.9634 11.9671C25.0349 11.6609 25.1351 11.5764 25.364 11.5764C25.6358 11.5764 15.7719 14.8716 15.686 15.3257C15.5287 16.2127 24.4055 13.8995 23.2181 14.2797C22.5314 14.5014 20.9864 14.5014 20.3141 14.2902C19.0981 13.9206 17.8964 12.738 17.8964 11.9143C17.8964 11.6503 17.9536 11.5764 18.1682 11.5764C18.3685 11.5764 18.4686 11.682 18.5402 11.9671ZM13.4617 17.701V18.1233H14.1054H14.7492V17.701C14.7492 17.3208 14.7921 17.2786 15.1068 17.2786H15.4644V18.3873V19.4961H15.1068C14.7921 19.4961 14.7492 19.4538 14.7492 19.0737V18.6513H14.1054H13.4617V19.0737C13.4617 19.4538 13.433 19.4961 13.104 19.4961H12.7464V18.3873V17.2786H13.104C13.433 17.2786 13.4617 17.3208 13.4617 17.701ZM16.895 18.0494C16.895 18.8625 17.0238 19.0737 17.5388 19.0737C18.0538 19.0737 18.1825 18.8625 18.1825 18.0494C18.1825 17.2997 18.1968 17.2786 18.5402 17.2786C18.8978 17.2786 18.8978 17.2891 18.8978 18.1128C18.8978 18.852 18.8549 18.9892 18.5545 19.2532C18.2684 19.4961 18.0967 19.5489 17.5531 19.5489C16.5231 19.5489 16.2656 19.2849 16.194 18.1761L16.1511 17.2786H16.5231C16.895 17.2786 16.895 17.2891 16.895 18.0494ZM21.7017 18.3345C22.045 18.8836 22.3168 19.3694 22.3168 19.4116C22.3312 19.4644 22.1738 19.4961 21.9878 19.4961C21.7589 19.4961 21.6016 19.4222 21.5443 19.2849C21.4728 19.1159 21.3298 19.0737 20.7575 19.0737C20.1853 19.0737 20.0423 19.1159 19.9707 19.2849C19.9135 19.4222 19.7561 19.4961 19.5273 19.4961C19.0981 19.4961 19.1124 19.4433 19.9135 18.155C20.6717 16.9407 20.872 16.9618 21.7017 18.3345ZM23.118 18.0177L23.4327 18.7041L23.7474 17.9861C24.0192 17.3736 24.1194 17.268 24.3769 17.2997C24.5914 17.3208 24.7488 17.5003 24.9777 18.0177L25.2924 18.7041L25.6071 17.9861C25.8933 17.3631 25.9791 17.2786 26.2795 17.2786C26.6944 17.2786 26.7087 17.2152 26.022 18.6196C25.6644 19.3694 25.5499 19.4961 25.2781 19.4961C25.0063 19.4961 24.9062 19.3905 24.6916 18.8625C24.5485 18.514 24.3769 18.2606 24.3339 18.3029C24.2767 18.3451 24.1194 18.6408 23.9763 18.9364C23.7903 19.3905 23.6759 19.4961 23.4184 19.4961C23.1466 19.4961 23.0321 19.3377 22.5744 18.3768L22.045 17.268L22.4313 17.2997C22.7603 17.3314 22.8462 17.4264 23.118 18.0177ZM29.3409 17.4898C29.3409 17.6798 29.2408 17.701 28.5541 17.701C27.8674 17.701 27.7673 17.7221 27.7673 17.9122C27.7673 18.0917 27.8674 18.1233 28.3395 18.1233C28.8116 18.1233 28.9117 18.155 28.9117 18.3345C28.9117 18.514 28.8116 18.5457 28.3395 18.5457C27.8245 18.5457 27.7673 18.5668 27.7673 18.8097C27.7673 19.0631 27.8102 19.0737 28.5541 19.0737C29.2408 19.0737 29.3409 19.0948 29.3409 19.2849C29.3409 19.475 29.2408 19.4961 28.1965 19.4961H27.052V18.3873V17.2786H28.1965C29.2408 17.2786 29.3409 17.2997 29.3409 17.4898ZM30.7715 18.3873V19.4961H30.4138H30.0562V18.3873V17.2786H30.4138H30.7715V18.3873Z" fill="white"/>
<path id="Vector_3" d="M5.99261 0.113412C2.85438 0.523433 0.725422 2.51046 0.17347 5.5383C0.0630801 6.15334 0 10.9947 0 20.031C0 34.8075 0.01577 34.9336 0.898892 36.5422C1.13544 36.9838 1.7347 37.7249 2.23935 38.1823C3.23286 39.0969 4.25791 39.57 5.86645 39.8381C7.14383 40.0431 126.018 40.0589 127.264 39.8539C130.276 39.3493 132.389 37.3465 132.941 34.4763C133.036 33.9559 133.099 28.3891 133.099 19.9048C133.099 5.17559 133.083 5.09674 132.295 3.53551C131.538 2.03736 129.882 0.759984 128.037 0.223802C127.485 0.0661017 114.916 0.0187916 67.1804 0.00302156C34.0948 -0.0127485 6.56034 0.0345616 5.99261 0.113412ZM127.611 1.05961C130.182 1.61157 131.79 3.42512 132.153 6.16911C132.263 7.00492 132.311 11.9725 132.279 20.8352C132.232 32.9624 132.2 34.3186 131.948 35.0283C131.333 36.8734 130.024 38.1823 128.242 38.7342C127.233 39.0496 126.712 39.0496 66.5653 39.0496C11.6067 39.0496 5.81914 39.0339 5.03064 38.7973C3.35902 38.3084 2.09741 37.2203 1.4193 35.7064C0.835812 34.3659 0.772732 32.6155 0.820042 18.9428L0.867352 5.8537L1.23006 4.79711C1.84509 2.98356 3.37479 1.58003 5.28296 1.10692C6.37109 0.838834 126.35 0.791524 127.611 1.05961Z" fill="black"/>
<path id="Vector_4" d="M12.8528 7.60396C10.2981 8.21898 9.17841 9.7329 8.8157 13.0446C8.56338 15.3944 8.72108 27.348 9.02071 28.4835C9.6042 30.6598 10.6608 31.7479 12.8528 32.3945C13.8937 32.6941 26.2416 32.8676 28.481 32.5995C31.3196 32.2683 32.8177 31.3063 33.6062 29.3508L33.9847 28.4046L34.032 20.5196C34.0635 13.7385 34.0478 12.4769 33.827 11.4992C33.3539 9.3702 32.0765 8.07705 29.9791 7.60396C28.4336 7.25701 14.3195 7.25701 12.8528 7.60396ZM17.8993 12.0353C18.2304 13.8647 19.6497 15.079 21.4475 15.079C23.2295 15.079 24.6488 13.8489 24.98 12.0353C25.0589 11.578 25.1692 11.4518 25.4216 11.4518C25.7212 11.4518 25.737 11.5149 25.6423 12.193C25.4689 13.5177 24.365 14.9213 23.0561 15.489C22.2991 15.8201 20.5959 15.8201 19.8547 15.5047C18.5143 14.9528 17.1896 13.1865 17.1896 11.9565C17.1896 11.5622 17.2527 11.4518 17.4892 11.4518C17.71 11.4518 17.8204 11.6095 17.8993 12.0353ZM12.3009 20.5985V21.2293H13.0105H13.7202V20.5985C13.7202 20.0307 13.7675 19.9677 14.1144 19.9677H14.5087V21.6235V23.2794H14.1144C13.7675 23.2794 13.7202 23.2163 13.7202 22.6486V22.0178H13.0105H12.3009V22.6486C12.3009 23.2163 12.2694 23.2794 11.9066 23.2794H11.5124V21.6235V19.9677H11.9066C12.2694 19.9677 12.3009 20.0307 12.3009 20.5985ZM16.0857 21.1189C16.0857 22.3332 16.2276 22.6486 16.7954 22.6486C17.3631 22.6486 17.505 22.3332 17.505 21.1189C17.505 19.9992 17.5208 19.9677 17.8993 19.9677C18.2935 19.9677 18.2935 19.9834 18.2935 21.2135C18.2935 22.3174 18.2462 22.5224 17.915 22.9167C17.5996 23.2794 17.4104 23.3582 16.8111 23.3582C15.6757 23.3582 15.3918 22.964 15.313 21.3081L15.2657 19.9677H15.6757C16.0857 19.9677 16.0857 19.9834 16.0857 21.1189ZM21.3844 21.5447C21.7629 22.3647 22.0625 23.0901 22.0625 23.1532C22.0783 23.2321 21.9048 23.2794 21.6998 23.2794C21.4475 23.2794 21.274 23.169 21.211 22.964C21.1321 22.7117 20.9744 22.6486 20.3436 22.6486C19.7128 22.6486 19.5551 22.7117 19.4763 22.964C19.4132 23.169 19.2397 23.2794 18.9874 23.2794C18.5143 23.2794 18.5301 23.2005 19.4132 21.2766C20.249 19.463 20.4698 19.4946 21.3844 21.5447ZM22.9457 21.0716L23.2926 22.0966L23.6396 21.0243C23.9392 20.1096 24.0496 19.9519 24.3334 19.9992C24.57 20.0307 24.7435 20.2988 24.9958 21.0716L25.3427 22.0966L25.6897 21.0243C26.0051 20.0938 26.0997 19.9677 26.4308 19.9677C26.8882 19.9677 26.9039 19.873 26.147 21.9705C25.7527 23.0901 25.6266 23.2794 25.3269 23.2794C25.0273 23.2794 24.9169 23.1217 24.6804 22.3332C24.5227 21.8128 24.3334 21.4343 24.2861 21.4974C24.223 21.5604 24.0496 22.002 23.8919 22.4436C23.6869 23.1217 23.5607 23.2794 23.2768 23.2794C22.9772 23.2794 22.851 23.0428 22.3464 21.6078L21.7629 19.9519L22.1887 19.9992C22.5514 20.0465 22.646 20.1884 22.9457 21.0716ZM29.8056 20.2831C29.8056 20.5669 29.6952 20.5985 28.9383 20.5985C28.1813 20.5985 28.0709 20.63 28.0709 20.9139C28.0709 21.182 28.1813 21.2293 28.7017 21.2293C29.2221 21.2293 29.3325 21.2766 29.3325 21.5447C29.3325 21.8128 29.2221 21.8601 28.7017 21.8601C28.134 21.8601 28.0709 21.8916 28.0709 22.2543C28.0709 22.6328 28.1182 22.6486 28.9383 22.6486C29.6952 22.6486 29.8056 22.6801 29.8056 22.964C29.8056 23.2478 29.6952 23.2794 28.544 23.2794H27.2824V21.6235V19.9677H28.544C29.6952 19.9677 29.8056 19.9992 29.8056 20.2831ZM31.3826 21.6235V23.2794H30.9884H30.5941V21.6235V19.9677H30.9884H31.3826V21.6235Z" fill="#C8102E"/>
<path id="Vector_5" d="M20.0751 21.5446C19.9016 21.9862 19.9174 22.0177 20.2801 22.0177C20.6901 22.0177 20.769 21.7497 20.4536 21.3396C20.2801 21.0873 20.2486 21.1031 20.0751 21.5446Z" fill="#C8102E"/>
<path id="Vector_6" d="M92.3811 12.982L91.9395 13.045V18.5015C91.9395 24.6045 91.9711 24.7622 92.9961 25.2511C93.5954 25.5349 94.9832 25.5034 95.2986 25.188C95.3774 25.1091 95.3932 24.7622 95.3301 24.4152C95.2355 23.816 95.1882 23.7687 94.652 23.7214L94.0685 23.674L94.0212 18.2649L93.9897 12.8716L93.3904 12.8873C93.075 12.9031 92.6177 12.9504 92.3811 12.982Z" fill="white"/>
<path id="Vector_7" d="M97.2536 12.982L96.812 13.0451L96.8594 18.7065L96.9067 24.368L97.3482 24.8253C97.8686 25.3615 98.6256 25.5665 99.5403 25.4088C100.25 25.2826 100.376 25.0776 100.234 24.3206C100.14 23.816 100.076 23.7687 99.5403 23.7214L98.9568 23.6741L98.9095 18.2649L98.8779 12.8716L98.2787 12.8874C97.9633 12.9031 97.4902 12.9504 97.2536 12.982Z" fill="white"/>
<path id="Vector_8" d="M76.0434 13.6598C72.984 14.3063 71.2493 16.7822 71.4858 20.1255C71.7066 23.2322 73.4728 25.1246 76.4691 25.4242C77.5415 25.5504 79.3235 25.2823 80.5063 24.8407L81.3736 24.5253V22.0021V19.4947H79.087H76.8003V20.362V21.2294H78.1408H79.4812V22.3333V23.4214L78.882 23.6107C78.535 23.7053 77.6992 23.7684 77.0053 23.7368C75.996 23.6895 75.6491 23.5949 75.1918 23.2953C74.0563 22.5225 73.599 21.4029 73.599 19.4947C73.599 17.4761 74.6241 15.8203 76.1222 15.4102C77.0369 15.1422 78.5193 15.221 79.4812 15.5522C79.9543 15.7256 80.3959 15.8518 80.459 15.8676C80.5378 15.8676 81.0582 14.5587 81.0582 14.3537C81.0582 14.3221 80.5851 14.1486 80.0016 13.9752C78.7716 13.5967 77.0053 13.4548 76.0434 13.6598Z" fill="white"/>
<path id="Vector_9" d="M43.8721 19.3842C42.6421 22.5224 41.6328 25.156 41.6328 25.2191C41.6328 25.2822 42.0901 25.3295 42.6421 25.3295H43.6513L44.2033 23.784L44.7552 22.2544L47.0419 22.207L49.3286 22.1597L49.8017 23.3898C50.054 24.0679 50.3063 24.7776 50.3694 24.9668C50.4798 25.298 50.5744 25.3295 51.5994 25.3295C52.593 25.3295 52.6876 25.298 52.593 25.0457C52.5456 24.9037 51.4891 22.2701 50.259 19.2107L48.0354 13.6597H47.0734H46.1115L43.8721 19.3842ZM48.7293 20.5512C48.7293 20.5827 47.9723 20.5985 47.0577 20.5985C45.7803 20.5985 45.4018 20.5512 45.4491 20.3935C45.4964 20.2989 45.8749 19.258 46.2849 18.1226L47.0419 16.0252L47.8777 18.2803C48.3508 19.5104 48.7293 20.5354 48.7293 20.5512Z" fill="white"/>
<path id="Vector_10" d="M56.9924 16.7037C56.74 16.8141 56.2985 17.0506 56.0304 17.2556L55.5257 17.6026L55.4784 17.1768C55.4311 16.751 55.3996 16.7352 54.4218 16.6879L53.4126 16.6406L53.5072 17.9495C53.5703 18.6749 53.6176 21.4189 53.6176 24.0683V28.8781L54.5638 28.8308L55.51 28.7677V26.9542C55.51 25.2826 55.5257 25.1406 55.7938 25.251C57.0554 25.7557 59.0425 25.3772 60.0044 24.431C61.0137 23.4532 61.266 22.6805 61.266 20.6777C61.266 18.7695 61.061 18.123 60.1306 17.2398C59.3736 16.5302 58.0489 16.3094 56.9924 16.7037ZM58.4274 18.4226C59.0425 18.8957 59.2948 19.6369 59.2948 20.867C59.2948 22.0339 58.9478 22.9801 58.3643 23.5005C57.9701 23.8633 56.5823 24.021 55.9515 23.7686L55.51 23.5952V21.3243V19.0376L55.9673 18.7222C56.9766 17.9968 57.7651 17.9022 58.4274 18.4226Z" fill="white"/>
<path id="Vector_11" d="M65.84 16.7983C65.493 16.956 65.1145 17.1925 64.9884 17.3345C64.673 17.7287 64.4995 17.6656 64.4995 17.1295V16.6563H63.5218H62.5283L62.5756 22.7594L62.6071 28.8781L63.6006 28.7993L64.5784 28.7204L64.6257 26.97L64.673 25.2353L65.5246 25.3772C67.2908 25.7084 69.0571 24.8883 69.814 23.4375C70.6498 21.8132 70.6025 19.2899 69.7036 17.8706C68.9151 16.6248 67.2435 16.1517 65.84 16.7983ZM67.3539 18.328C68.0162 18.6591 68.2843 19.4003 68.2843 20.8669C68.2843 22.9013 67.5431 23.9106 66.045 23.9106C64.5941 23.9106 64.6572 24.021 64.6572 21.4031C64.6572 19.1953 64.673 19.0534 65.0199 18.738C65.7296 18.0757 66.5812 17.918 67.3539 18.328Z" fill="white"/>
<path id="Vector_12" d="M84.4485 16.7826C83.9124 16.9403 83.5023 17.1453 83.5181 17.2557C83.5339 17.3503 83.5497 17.6027 83.5654 17.7919C83.6127 18.4858 83.7704 18.5646 84.5905 18.3123C85.5209 18.0284 87.1925 18.0127 87.5395 18.2808C87.9022 18.5646 88.1545 19.1008 88.1545 19.6212V20.0943L86.4671 20.1574C84.4485 20.2205 83.7074 20.5201 83.1396 21.4821C82.6823 22.2548 82.7138 23.6741 83.2027 24.3522C83.7389 25.0619 84.7797 25.5192 85.7259 25.4404C86.5933 25.3457 87.6341 24.9042 88.0126 24.4468C88.2176 24.1945 88.2334 24.2261 88.3122 24.7149C88.3911 25.2511 88.3911 25.2511 89.3373 25.2984L90.2992 25.3457L90.2519 22.3021C90.1888 18.8327 90.0469 18.0915 89.3215 17.3661C88.4541 16.4988 86.3883 16.2464 84.4485 16.7826ZM87.571 21.3244L88.1545 21.4348V22.2548C88.1545 23.0433 88.123 23.1222 87.5868 23.4533C87.2714 23.6426 86.6721 23.8318 86.2621 23.8791C85.3317 23.958 84.8428 23.5795 84.8428 22.7437C84.8428 22.034 85.2844 21.5294 86.0413 21.3875C86.8929 21.214 86.8929 21.214 87.571 21.3244Z" fill="white"/>
<path id="Vector_13" d="M103.373 16.7507C102.632 17.0188 101.796 17.7757 101.401 18.5642C100.692 19.9204 100.708 22.0809 101.417 23.5475C102.048 24.8407 103.83 25.6292 105.707 25.4242C107.11 25.2822 108.356 24.8565 108.277 24.5568C108.23 24.4149 108.151 24.1153 108.088 23.8629C107.978 23.3583 107.993 23.3741 106.811 23.6737C106.322 23.7999 105.659 23.9103 105.344 23.9103C104.145 23.9103 102.978 22.8537 102.978 21.7655V21.2293H105.738H108.498V20.5512C108.498 18.8954 107.631 17.3657 106.369 16.798C105.612 16.451 104.256 16.4353 103.373 16.7507ZM105.912 18.4538C106.29 18.8323 106.448 19.1319 106.448 19.4789V19.9677H104.697H102.947L103.042 19.5262C103.404 18.0123 104.902 17.4445 105.912 18.4538Z" fill="white"/>
<path id="Vector_14" d="M113.419 16.7666C113.135 16.9085 112.709 17.2712 112.472 17.5708L112.047 18.1386L111.968 17.4289L111.889 16.735L110.88 16.6877L109.87 16.6404L109.981 17.145C110.028 17.4131 110.075 19.3686 110.075 21.4976V25.3455L111.069 25.2981L112.047 25.2508L112.094 22.4122L112.126 19.5736L112.63 19.069C113.182 18.5013 114.002 18.1701 114.586 18.2805C114.996 18.3593 115.075 18.2174 115.153 17.1293C115.201 16.5931 115.185 16.5773 114.57 16.53C114.223 16.5142 113.703 16.6089 113.419 16.7666Z" fill="white"/>
<path id="Vector_15" d="M116.067 16.7193C116.067 16.7666 116.777 18.7222 117.644 21.0877L119.205 25.3771L118.921 25.9447C118.448 26.8752 118.038 27.1275 116.966 27.2221L116.004 27.3011L115.862 27.9002C115.657 28.736 115.83 28.8464 117.202 28.8464C119 28.8464 119.899 28.2629 120.766 26.5126C120.924 26.1656 121.618 24.352 122.296 22.4911C122.974 20.6302 123.715 18.5487 123.968 17.8706L124.409 16.6562H123.4H122.391L121.334 19.8734L120.262 23.0905L119.237 19.8734L118.212 16.6562H117.139C116.556 16.6562 116.067 16.6877 116.067 16.7193Z" fill="white"/>
</g>
<defs>
<clipPath id="clip0_4720_380655">
<rect width="134" height="40" fill="white"/>
</clipPath>
</defs>
</svg>
