<svg width="152" height="41" viewBox="0 0 152 41" fill="none" xmlns="http://www.w3.org/2000/svg">
<g id="Group 10426 1" clip-path="url(#clip0_4720_380623)">
<path id="Vector" d="M147 0H5C2.23858 0 0 2.23858 0 5V35C0 37.7614 2.23858 40 5 40H147C149.761 40 152 37.7614 152 35V5C152 2.23858 149.761 0 147 0Z" fill="black"/>
<g id="Mask group">
<mask id="mask0_4720_380623" style="mask-type:luminance" maskUnits="userSpaceOnUse" x="0" y="0" width="152" height="41">
<g id="Group">
<path id="Vector_2" d="M151.87 0H0V40.1024H151.87V0Z" fill="white"/>
</g>
</mask>
<g mask="url(#mask0_4720_380623)">
<g id="Group_2">
<path id="Vector_3" d="M147.497 39.6881H4.37911C3.35168 39.6881 2.36125 39.3139 1.62699 38.6322C0.892734 37.9638 0.475442 37.0414 0.474121 36.0789V4.02378C0.475442 3.06132 0.892734 2.13892 1.62699 1.47055C2.36125 0.788811 3.35168 0.414551 4.37911 0.414551H147.496C148.004 0.414551 148.509 0.508152 148.98 0.695297C149.452 0.869074 149.882 1.13636 150.245 1.47055C150.609 1.80474 150.898 2.20575 151.095 2.63351C151.293 3.07464 151.394 3.54255 151.394 4.02378L151.396 36.0789C151.396 36.5602 151.293 37.0281 151.096 37.4692C150.898 37.9103 150.609 38.298 150.245 38.6322C149.882 38.9664 149.453 39.2337 148.982 39.4208C148.51 39.5946 148.006 39.6881 147.497 39.6881Z" stroke="black" stroke-width="0.913152"/>
<path id="Vector_4" d="M33.3504 19.8371C33.3174 16.4417 36.36 14.7976 36.5 14.7308C34.7766 12.4182 32.105 12.0974 31.166 12.0707C28.9223 11.8568 26.746 13.3138 25.6024 13.3138C24.4376 13.3138 22.6773 12.0974 20.7809 12.1241C18.3391 12.1642 16.0557 13.4608 14.8038 15.4793C12.2181 19.5964 14.1461 25.652 16.6222 28.9805C17.8609 30.6114 19.3084 32.4292 21.2035 32.3624C23.0576 32.2956 23.7495 31.2797 25.9866 31.2797C28.2026 31.2797 28.8523 32.3625 30.7844 32.3224C32.7745 32.2957 34.0265 30.6915 35.2217 29.0473C36.6532 27.1758 37.229 25.3312 37.2514 25.2376C37.2052 25.2242 33.3887 23.8874 33.3504 19.8371ZM29.7002 9.87839C30.6972 8.74215 31.3787 7.17813 31.1898 5.5874C29.7464 5.65424 27.9425 6.5098 26.9032 7.63266C25.984 8.62186 25.1626 10.2393 25.3753 11.7631C26.9956 11.8701 28.6596 11.0146 29.7002 9.87839Z" fill="white"/>
<path id="Vector_5" d="M60.1989 32.1355H57.6079L56.1895 28.0316H51.2571L49.9048 32.1355H47.3838L52.2713 18.1664H55.2889L60.1989 32.1355ZM55.7617 26.3073L54.4781 22.6578C54.342 22.2835 54.0871 21.4147 53.7134 20.0245H53.6672C53.5167 20.626 53.2763 21.4948 52.9461 22.6578L51.685 26.3073H55.7617ZM72.7434 26.9756C72.7434 28.6867 72.2389 30.0367 71.2273 31.0392C70.3214 31.9215 69.1949 32.3626 67.8532 32.3626C66.4031 32.3626 65.3598 31.8814 64.7273 30.9324V36.2124H62.2947V25.3714C62.2947 24.2887 62.2644 23.1926 62.205 22.0563H64.3443L64.4803 23.6604H64.5252C65.3361 22.4573 66.5669 21.8558 68.2189 21.8558C69.5105 21.8558 70.5881 22.3237 71.4505 23.2594C72.3115 24.2085 72.7434 25.4384 72.7434 26.9756ZM70.2659 27.0558C70.2659 26.0799 70.0269 25.2646 69.5449 24.6229C69.0193 23.9679 68.3127 23.6338 67.4279 23.6338C66.8283 23.6338 66.283 23.8208 65.7957 24.1817C65.307 24.556 64.9887 25.024 64.8382 25.6255C64.7722 25.8528 64.7339 26.08 64.726 26.3073V27.9914C64.726 28.7133 64.9702 29.3415 65.4575 29.8361C65.9462 30.3441 66.5801 30.5982 67.3606 30.5982C68.2771 30.5982 68.9902 30.2774 69.5 29.6224C70.011 28.9807 70.2659 28.1118 70.2659 27.0558ZM85.3327 26.9756C85.3327 28.6867 84.8282 30.0367 83.8166 31.0392C82.9094 31.9215 81.7842 32.3626 80.4411 32.3626C78.9911 32.3626 77.9492 31.8814 77.3153 30.9324V36.2124H74.884V25.3714C74.884 24.2887 74.8523 23.1926 74.7942 22.0563H76.9323L77.0683 23.6604H77.1133C77.9241 22.4573 79.1549 21.8558 80.807 21.8558C82.0972 21.8558 83.1748 22.3237 84.0398 23.2594C84.8996 24.2085 85.3327 25.4384 85.3327 26.9756ZM82.8539 27.0558C82.8539 26.0799 82.6136 25.2646 82.1316 24.6229C81.606 23.9679 80.9021 23.6338 80.0172 23.6338C79.4177 23.6338 78.8723 23.8208 78.3824 24.1817C77.8951 24.556 77.5768 25.024 77.4275 25.6255C77.3536 25.9062 77.3127 26.1335 77.3127 26.3073V27.9914C77.3127 28.7133 77.5583 29.3415 78.0442 29.8361C78.5315 30.3441 79.1668 30.5982 79.9486 30.5982C80.8664 30.5982 81.5795 30.2774 82.0879 29.6224C82.599 28.9807 82.8539 28.1118 82.8539 27.0558ZM99.409 28.2187C99.409 29.4084 98.9574 30.3709 98.0593 31.1195C97.0715 31.9349 95.6928 32.3358 93.9246 32.3358C92.291 32.3358 90.9822 32.0553 89.9944 31.4671L90.557 29.609C91.6228 30.1838 92.7941 30.4779 94.0685 30.4779C94.9863 30.4779 95.6994 30.2773 96.2079 29.903C96.7176 29.5287 96.9751 29.0208 96.9751 28.3791C96.9751 27.8177 96.7625 27.3365 96.3439 26.9489C95.9226 26.5612 95.2266 26.2002 94.2494 25.8794C91.5923 24.9571 90.2612 23.6337 90.2612 21.8692C90.2612 20.7329 90.7313 19.7839 91.6689 19.062C92.6079 18.3268 93.8506 17.9526 95.397 17.9526C96.7784 17.9526 97.9286 18.1798 98.8425 18.621L98.2323 20.4389C97.3726 20.0112 96.402 19.7973 95.3165 19.7973C94.4581 19.7973 93.7858 19.9977 93.3038 20.3854C92.8984 20.733 92.6937 21.1473 92.6937 21.6552C92.6937 22.2033 92.9274 22.6578 93.3936 23.0188C93.7964 23.3529 94.5334 23.7006 95.5991 24.0882C96.9065 24.5828 97.8665 25.1443 98.4819 25.7859C99.1013 26.4409 99.409 27.2429 99.409 28.2187ZM107.47 23.7406H104.789V28.6332C104.789 29.8764 105.261 30.4913 106.209 30.4913C106.643 30.4913 107.004 30.4645 107.289 30.3842L107.356 32.0953C106.877 32.2557 106.246 32.3358 105.464 32.3358C104.504 32.3358 103.754 32.0685 103.211 31.5338C102.672 30.9858 102.401 30.0903 102.401 28.807V23.7406H100.803V22.0563H102.401V20.2116L104.789 19.5432V22.0563H107.47V23.7406ZM119.54 27.0156C119.54 28.5662 119.06 29.8363 118.098 30.8255C117.093 31.8548 115.757 32.3626 114.09 32.3626C112.482 32.3626 111.203 31.868 110.25 30.8922C109.296 29.903 108.82 28.6732 108.82 27.176C108.82 25.6254 109.312 24.3421 110.293 23.3529C111.279 22.3504 112.604 21.8558 114.27 21.8558C115.877 21.8558 117.167 22.3504 118.143 23.3262C119.077 24.2753 119.54 25.5051 119.54 27.0156ZM117.019 27.0691C117.019 26.1468 116.803 25.3447 116.368 24.6897C115.858 23.8876 115.128 23.4866 114.182 23.4866C113.208 23.4866 112.46 23.8876 111.952 24.6897C111.518 25.3447 111.3 26.1602 111.3 27.1093C111.3 28.0316 111.518 28.8204 111.952 29.4887C112.478 30.2774 113.212 30.6783 114.161 30.6783C115.091 30.6783 115.82 30.2774 116.347 29.462C116.795 28.7802 117.019 27.9915 117.019 27.0691ZM127.449 24.0347C127.196 23.9812 126.938 23.968 126.682 23.968C125.826 23.968 125.165 24.2619 124.7 24.8635C124.296 25.3848 124.092 26.0398 124.092 26.8418V32.1355H121.661V25.2378C121.662 24.1684 121.639 23.1124 121.59 22.0563H123.708L123.797 23.9946H123.865C124.123 23.3262 124.526 22.7915 125.08 22.3905C125.587 22.043 126.204 21.8558 126.838 21.8558C127.062 21.8558 127.266 21.8692 127.447 21.8959L127.449 24.0347ZM138.324 26.6147C138.331 26.9622 138.301 27.2964 138.236 27.6306H130.94C130.967 28.6332 131.321 29.3951 131.999 29.9164C132.613 30.3843 133.408 30.6249 134.385 30.6249C135.465 30.6249 136.451 30.4645 137.337 30.1437L137.717 31.6942C136.683 32.1086 135.459 32.3226 134.048 32.3226C132.351 32.3226 131.019 31.8547 130.048 30.9457C129.082 30.0234 128.597 28.7935 128.597 27.2429C128.597 25.719 129.047 24.4625 129.951 23.4466C130.895 22.3772 132.171 21.8424 133.776 21.8424C135.354 21.8424 136.548 22.3772 137.359 23.4466C138.002 24.3021 138.324 25.3581 138.324 26.6147ZM136.006 26.0398C136.023 25.3714 135.863 24.7966 135.533 24.3154C135.113 23.7005 134.464 23.3797 133.597 23.3797C132.802 23.3797 132.153 23.6872 131.661 24.3021C131.257 24.7834 131.015 25.3581 130.941 26.0398H136.006Z" fill="white"/>
<path id="Vector_6" d="M50.5551 13.2206C49.8789 13.2206 49.2926 13.1939 48.8066 13.1404V6.38988C49.4867 6.29631 50.1761 6.24277 50.8655 6.24277C53.6546 6.24277 54.9382 7.51267 54.9382 9.57126C54.9382 11.9373 53.4208 13.2206 50.5551 13.2206ZM50.9632 7.11169C50.5868 7.11169 50.2659 7.13842 50.0004 7.19189V12.3249C50.1444 12.3383 50.4204 12.3517 50.8074 12.3517C52.6351 12.3517 53.6757 11.3892 53.6757 9.59802C53.6757 8.00729 52.7341 7.11169 50.9632 7.11169ZM58.941 13.2741C57.3695 13.2741 56.3499 12.1913 56.3499 10.7343C56.3499 9.19705 57.3905 8.11425 59.0294 8.11425C60.5785 8.11425 61.6205 9.1435 61.6205 10.654C61.6205 12.1913 60.5468 13.2741 58.941 13.2741ZM58.9872 8.91627C58.1235 8.91627 57.5702 9.66487 57.5702 10.6941C57.5702 11.7234 58.1341 12.4587 58.9753 12.4587C59.8152 12.4587 60.3804 11.67 60.3804 10.6808C60.3804 9.66486 59.8271 8.91627 58.9872 8.91627ZM70.5834 8.22122L68.901 13.1671H67.8048L67.1075 11.015C66.9345 10.4936 66.7906 9.95892 66.6758 9.41086H66.6533C66.5648 9.95892 66.3984 10.4936 66.2215 11.015L65.4806 13.1671H64.3726L62.7892 8.22122H64.0174L64.6275 10.5738C64.7714 11.1352 64.8916 11.6566 64.992 12.1512H65.0157C65.1029 11.7368 65.2468 11.2154 65.4568 10.5738L66.2215 8.22122H67.196L67.9277 10.5337C68.1033 11.0952 68.2472 11.6432 68.3595 12.1645H68.3912C68.4692 11.6432 68.5906 11.1085 68.7557 10.5337L69.4094 8.22122H70.5834ZM76.777 13.1671H75.5819V10.3198C75.5819 9.45095 75.2174 9.00985 74.4977 9.00985C73.7885 9.00985 73.3012 9.57133 73.3012 10.2263V13.1671H72.1061V9.62478C72.1061 9.19702 72.0942 8.72917 72.0625 8.20783H73.1137L73.1692 8.98309H73.2022C73.5244 8.44839 74.1768 8.11425 74.9071 8.11425C76.0375 8.11425 76.7783 8.90293 76.7783 10.1996L76.777 13.1671ZM80.0732 13.1671H78.8768V5.94873H80.0732V13.1671ZM84.4326 13.2741C82.8611 13.2741 81.8416 12.1913 81.8416 10.7343C81.8416 9.19705 82.8822 8.11425 84.5197 8.11425C86.0701 8.11425 87.1108 9.1435 87.1108 10.654C87.1121 12.1913 86.0371 13.2741 84.4326 13.2741ZM84.4762 8.91627C83.6138 8.91627 83.0605 9.66487 83.0605 10.6941C83.0605 11.7234 83.6257 12.4587 84.4643 12.4587C85.3068 12.4587 85.8694 11.67 85.8694 10.6808C85.8708 9.66486 85.3187 8.91627 84.4762 8.91627ZM91.824 13.1671L91.7369 12.5923H91.7052C91.3407 13.0602 90.8071 13.2741 90.1323 13.2741C89.1683 13.2741 88.4842 12.6592 88.4842 11.817C88.4842 10.6006 89.6345 9.97235 91.6273 9.97235V9.87877C91.6273 9.22376 91.2522 8.90289 90.5114 8.90289C89.9805 8.90289 89.5143 9.02322 89.1049 9.26384L88.8619 8.54202C89.3598 8.2613 89.9804 8.11425 90.7094 8.11425C92.1145 8.11425 92.8237 8.79595 92.8237 10.1594V11.9908C92.8237 12.4853 92.8488 12.873 92.9017 13.1671H91.824ZM91.6589 10.6941C90.3317 10.6941 89.6648 11.0016 89.6648 11.6967C89.6648 12.218 90.0095 12.472 90.4849 12.472C91.0937 12.472 91.6589 12.0443 91.6589 11.4695V10.6941ZM98.6291 13.1671L98.5737 12.3651H98.5393C98.1973 12.9666 97.6202 13.2741 96.8133 13.2741C95.5164 13.2741 94.555 12.2314 94.555 10.7476C94.555 9.19698 95.5521 8.11425 96.911 8.11425C97.6307 8.11425 98.1405 8.3415 98.4284 8.78263H98.4522V5.94873H99.6486V11.8303C99.6486 12.3116 99.6605 12.7527 99.6936 13.1671H98.6291ZM98.4522 10.253C98.4522 9.55791 97.9543 8.96979 97.1936 8.96979C96.3062 8.96979 95.7647 9.69162 95.7647 10.7075C95.7647 11.7101 96.3273 12.3918 97.1685 12.3918C97.9212 12.3918 98.4522 11.7902 98.4522 11.0818V10.253ZM107.236 13.2741C105.664 13.2741 104.646 12.1913 104.646 10.7343C104.646 9.19705 105.687 8.11425 107.324 8.11425C108.874 8.11425 109.915 9.1435 109.915 10.654C109.916 12.1913 108.843 13.2741 107.236 13.2741ZM107.281 8.91627C106.417 8.91627 105.865 9.66487 105.865 10.6941C105.865 11.7234 106.429 12.4587 107.269 12.4587C108.11 12.4587 108.674 11.67 108.674 10.6808C108.676 9.66486 108.123 8.91627 107.281 8.91627ZM116.344 13.1671H115.147V10.3198C115.147 9.45095 114.783 9.00985 114.062 9.00985C113.354 9.00985 112.868 9.57133 112.868 10.2263V13.1671H111.671V9.62478C111.671 9.19702 111.66 8.72917 111.627 8.20783H112.679L112.735 8.98309H112.768C113.089 8.44839 113.742 8.11425 114.471 8.11425C115.602 8.11425 116.344 8.90293 116.344 10.1996V13.1671ZM124.386 9.03661H123.071V11.4427C123.071 12.0576 123.302 12.3651 123.767 12.3651C123.978 12.3651 124.155 12.3384 124.298 12.3116L124.331 13.1404C124.098 13.2206 123.789 13.2741 123.402 13.2741C122.461 13.2741 121.897 12.7928 121.897 11.5363V9.03661H121.113V8.22122H121.897V7.31216L123.071 6.97797V8.20783H124.386V9.03661ZM130.715 13.1671H129.521V10.3466C129.521 9.46434 129.156 9.00985 128.435 9.00985C127.816 9.00985 127.239 9.39751 127.239 10.1862V13.1671H126.045V5.94873H127.239V8.91627H127.263C127.639 8.38157 128.184 8.11425 128.88 8.11425C130.019 8.11425 130.715 8.92969 130.715 10.2263V13.1671ZM137.199 10.9481H133.611C133.633 11.8972 134.308 12.4185 135.305 12.4185C135.836 12.4185 136.325 12.3383 136.756 12.1913L136.941 12.9533C136.433 13.1538 135.835 13.2607 135.137 13.2607C133.455 13.2607 132.459 12.2715 132.459 10.761C132.459 9.23709 133.479 8.10087 135.003 8.10087C136.377 8.10087 137.24 9.03661 137.24 10.4535C137.246 10.6273 137.233 10.7877 137.199 10.9481ZM136.103 10.1728C136.103 9.41087 135.683 8.86283 134.919 8.86283C134.233 8.86283 133.69 9.41087 133.612 10.1728H136.103Z" fill="white"/>
</g>
</g>
</g>
</g>
<defs>
<clipPath id="clip0_4720_380623">
<rect width="152" height="41" fill="white"/>
</clipPath>
</defs>
</svg>
