<svg width="143" height="32" viewBox="0 0 143 32" fill="none" xmlns="http://www.w3.org/2000/svg">
<path d="M21.0647 7.6751C20.866 7.6751 20.7193 7.76498 20.6411 7.82751C20.5424 7.90697 20.377 8.08412 20.377 8.38268V23.6177C20.377 23.9141 20.5409 24.0913 20.6385 24.1705C20.7364 24.2499 20.9443 24.3724 21.2262 24.3057L28.8383 22.5099C29.1545 22.4354 29.3751 22.1525 29.3751 21.8219V10.2501C29.3751 9.92262 29.1568 9.63995 28.8442 9.56336L21.2321 7.69595C21.1728 7.68136 21.1168 7.6751 21.0647 7.6751ZM21.0636 27C20.3228 27 19.6001 26.7465 19.0053 26.2643C18.2089 25.6192 17.7521 24.6543 17.7521 23.6177V8.38268C17.7521 7.33981 18.2128 6.37172 19.0165 5.72641C19.8207 5.08136 20.8522 4.85158 21.8466 5.09517L29.4582 6.96284C30.955 7.32991 32 8.68176 32 10.2501V21.8219C32 23.4043 30.9435 24.7593 29.4303 25.1159L21.818 26.9117C21.5675 26.9708 21.3147 27 21.0636 27Z" fill="#10B981"/>
<path d="M10.9351 7.67511C10.8829 7.67511 10.8272 7.68136 10.7679 7.69595L3.15557 9.56336C2.84344 9.63995 2.62487 9.92262 2.62487 10.2501V21.8219C2.62487 22.1525 2.84548 22.4354 3.16145 22.5099L10.7735 24.3057C11.057 24.3727 11.2638 24.2497 11.3615 24.1702C11.4591 24.091 11.6233 23.9141 11.6233 23.6177V8.38268C11.6233 8.08438 11.4576 7.90697 11.3589 7.82777C11.281 7.76498 11.1342 7.67511 10.9351 7.67511ZM10.9361 27C10.6853 27 10.4328 26.9708 10.1817 26.9117L2.56965 25.1159C1.05654 24.759 0 23.4043 0 21.8219V10.2501C0 8.68176 1.04504 7.32991 2.54128 6.96284L10.1536 5.09517C11.147 4.85132 12.1795 5.0811 12.9832 5.72667C13.787 6.37172 14.2479 7.33982 14.2479 8.38268V23.6177C14.2479 24.6543 13.791 25.619 12.995 26.2643C12.3999 26.7465 11.6769 27 10.9361 27Z" fill="#10B981"/>
<path d="M73.519 15.8882C73.0418 16.6865 72.8658 17.6443 72.8658 18.6024C72.8658 20.811 73.8706 22.7534 76.0301 22.7534C78.1145 22.7534 79.1443 20.9705 79.1443 18.7887C79.1443 17.2453 78.7927 16.0478 78.0643 15.303C77.2607 14.5044 76.3565 14.478 75.8042 14.5311C74.6992 14.6108 74.0462 15.0101 73.519 15.8882ZM83.0618 18.6289C83.0618 22.1414 81.1535 25.9999 76.0301 25.9999C72.3386 25.9999 68.9732 23.7646 68.9732 18.6289C68.9732 14.3716 71.5098 10.9919 76.5326 11.2846C81.8814 11.604 83.0618 16.101 83.0618 18.6289Z" fill="#10B981"/>
<path d="M65.1318 12.3224C64.353 11.6307 63.2982 11.3378 62.3443 11.3378C60.8224 11.3378 59.8092 12.0046 59.158 12.5923C58.9287 12.7994 58.5771 12.6233 58.5771 12.3042V7.23608C58.5771 7.06129 58.4634 6.9095 58.3025 6.86994L55.1441 6.09545C54.9219 6.04094 54.7096 6.21973 54.7096 6.46132V25.2249C54.7096 25.4326 54.8685 25.6007 55.0642 25.6007H58.2225C58.4185 25.6007 58.5771 25.4326 58.5771 25.2249V18.6821C58.5771 17.4848 58.5771 16.3405 59.0793 15.6221C59.4059 15.1697 59.9835 14.8238 60.6615 14.8238C61.0633 14.8238 62.0931 14.9567 62.4694 16.2074C62.6205 16.6866 62.6454 17.2187 62.6454 18.3363V25.2249C62.6454 25.4326 62.8041 25.6007 63.0001 25.6007H66.1332C66.3291 25.6007 66.4878 25.4326 66.4878 25.2249V16.4736C66.4878 14.6643 66.2868 13.3601 65.1318 12.3224Z" fill="#10B981"/>
<path d="M120.745 19.8264C120.092 20.0926 119.087 20.4916 119.087 21.556C119.087 22.2212 119.64 22.9663 120.544 22.9663C121.021 22.9663 121.473 22.78 121.875 22.5141C122.993 21.7706 123.173 20.7027 123.218 19.4875C123.227 19.2259 122.985 19.0351 122.751 19.1179L120.745 19.8264ZM116.238 15.6487C116.028 15.6487 115.861 15.4555 115.885 15.234C115.98 14.3715 116.215 13.4078 117.229 12.562C118.435 11.5507 119.992 11.338 121.523 11.338C123.131 11.338 127.023 11.737 127.023 15.3294V23.4188C127.023 24.3672 127.054 24.7983 127.154 25.1099C127.231 25.3518 127.059 25.6006 126.817 25.6006H123.963C123.767 25.6006 123.608 25.4325 123.608 25.2248V25.061C123.608 24.7569 123.286 24.5794 123.051 24.7537C122.194 25.3884 121.168 25.9731 119.59 25.9731C116.576 25.9731 115.295 23.6849 115.295 21.7423C115.295 19.507 116.978 18.2298 118.058 17.7509C119.052 17.2993 121.318 16.8479 122.941 16.5301C123.11 16.4973 123.231 16.342 123.231 16.1608V15.7439C123.231 15.7337 123.231 15.7238 123.23 15.7134C123.18 15.0733 123.12 14.0255 121.749 14.0255C120.307 14.0255 119.921 14.8229 119.776 15.3753C119.734 15.5376 119.595 15.6487 119.436 15.6487H116.238Z" fill="#10B981"/>
<path d="M132.946 21.4261V25.225C132.946 25.4324 132.788 25.6008 132.592 25.6008H129.534C129.338 25.6008 129.179 25.4324 129.179 25.2248V6.59504C129.179 6.35344 129.391 6.17465 129.614 6.2289L132.696 6.98522C132.857 7.02451 132.971 7.1763 132.971 7.35109V15.5281L132.946 21.4261Z" fill="#10B981"/>
<path d="M42.0266 21.1959C42.1605 21.0671 42.3668 21.0626 42.5005 21.1914C43.5147 22.1684 44.7397 22.8809 46.0947 22.8809C47.0254 22.8809 48.4343 22.561 48.4343 21.5214C48.4343 21.0414 48.1576 20.8549 47.9313 20.7215C47.3528 20.4016 46.4468 20.3217 45.6921 20.1884C45.1135 20.0817 44.5095 19.9487 43.9309 19.7618C43.1258 19.5221 42.3209 19.1752 41.7423 18.5624C41.1632 17.9491 40.761 16.9894 40.761 15.9498C40.761 13.6573 42.6226 11.2847 46.2959 11.2847C49.0199 11.2847 50.7883 12.3793 51.7906 13.0961C51.9805 13.2319 52.0002 13.5186 51.8319 13.6838L49.9844 15.4971C49.8588 15.6205 49.6697 15.628 49.5307 15.5222C48.3871 14.6504 47.3195 14.3238 46.472 14.3238C44.9627 14.3238 44.6104 14.9634 44.6104 15.3634C44.6104 16.1631 45.4404 16.3229 46.6982 16.5629C49.3403 17.0696 52.4095 17.816 52.4095 21.1216C52.4095 24.4005 49.2896 26 46.1951 26C42.9179 26 41.0621 24.494 40.1165 23.5886C39.9607 23.4395 39.9614 23.181 40.1173 23.0314L42.0266 21.1959Z" fill="#10B981"/>
<path d="M134.569 19.9429L137.644 25.4149C137.709 25.53 137.827 25.6006 137.953 25.6006H141.64C141.92 25.6006 142.092 25.2769 141.948 25.0233L137.256 16.7947C137.172 16.6469 137.192 16.4574 137.305 16.3332L141.042 12.3431C141.15 12.2245 141.095 12.0254 140.942 11.9879L137.562 11.1587C137.492 11.1416 137.42 11.1643 137.371 11.2191C136.937 11.7044 133.936 15.0105 132.888 16.1643C132.676 16.3978 132.644 16.753 132.809 17.0261L134.569 19.9429Z" fill="#10B981"/>
<path d="M109.058 21.9019C108.732 22.3279 108.079 22.9396 107.049 22.9396C106.17 22.9396 105.266 22.4874 104.764 21.6357C104.312 20.811 104.161 19.5338 104.161 18.5225C104.161 17.6978 104.186 14.4512 106.999 14.2917C109.184 14.1586 109.836 16.2872 109.836 18.4958C109.836 19.108 109.761 20.9173 109.058 21.9019ZM108.028 11.2846C106.415 11.2846 105.456 11.8396 104.839 12.3784C104.608 12.5802 104.261 12.4049 104.261 12.0876V7.12588C104.261 6.9511 104.148 6.7993 103.987 6.75975L100.929 6.00985C100.707 5.95533 100.495 6.13412 100.495 6.37598V25.2249C100.495 25.4325 100.653 25.6006 100.849 25.6006H103.816C104.027 25.6006 104.191 25.4066 104.168 25.1842C104.134 24.8456 104.503 24.6415 104.752 24.8582C105.376 25.4031 106.359 25.9732 107.903 25.9732C110.515 25.9732 112.122 24.2171 112.8 22.647C113.377 21.423 113.603 19.7732 113.603 18.3627C113.603 12.8279 110.138 11.2846 108.028 11.2846Z" fill="#10B981"/>
<path d="M93.8753 21.9019C93.5489 22.3279 92.8959 22.9396 91.8664 22.9396C90.9874 22.9396 90.0832 22.4874 89.581 21.6357C89.1287 20.811 88.9782 19.5338 88.9782 18.5225C88.9782 17.6978 89.0036 14.4512 91.8162 14.2917C94.0009 14.1586 94.6537 16.2872 94.6537 18.4958C94.6537 19.108 94.5785 20.9173 93.8753 21.9019ZM92.8457 11.2846C91.2323 11.2846 90.2728 11.8396 89.6564 12.3784C89.4254 12.5802 89.0788 12.4049 89.0788 12.0876V7.12588C89.0788 6.9511 88.9651 6.7993 88.8041 6.75975L85.7465 6.00985C85.5243 5.95533 85.3119 6.13412 85.3119 6.37598V25.2249C85.3119 25.4325 85.4705 25.6006 85.6665 25.6006H88.6331C88.8442 25.6006 89.0084 25.4066 88.9857 25.1842C88.9509 24.8456 89.3204 24.6415 89.5686 24.8582C90.1936 25.4031 91.1765 25.9732 92.7201 25.9732C95.3319 25.9732 96.939 24.2171 97.6173 22.647C98.1948 21.423 98.4206 19.7732 98.4206 18.3627C98.4206 12.8279 94.9553 11.2846 92.8457 11.2846Z" fill="#10B981"/>
</svg>
