<svg width="152" height="41" viewBox="0 0 152 41" fill="none" xmlns="http://www.w3.org/2000/svg">
<g id="Group 10427 1" clip-path="url(#clip0_4720_380633)">
<path id="Vector" d="M147 0H5C2.23858 0 0 2.23858 0 5V35C0 37.7614 2.23858 40 5 40H147C149.761 40 152 37.7614 152 35V5C152 2.23858 149.761 0 147 0Z" fill="black"/>
<g id="Mask group">
<mask id="mask0_4720_380633" style="mask-type:luminance" maskUnits="userSpaceOnUse" x="0" y="0" width="152" height="41">
<g id="Group">
<path id="Vector_2" d="M152 0H0V40.0534H152V0Z" fill="white"/>
</g>
</mask>
<g mask="url(#mask0_4720_380633)">
<g id="Group_2">
<path id="Vector_3" d="M146.374 0.800548C148.956 0.800548 151.096 2.7098 151.096 5.00619V35.0463C151.096 37.3427 148.956 39.2519 146.374 39.2519H5.62996C3.04036 39.2519 0.900173 37.3427 0.900173 35.0463V5.00619C0.900173 2.7098 3.04036 0.800548 5.62996 0.800548H146.374ZM146.374 -0.000488281H5.62996C2.47722 -0.000488281 0 2.29591 0 5.00619V35.0463C0 37.85 2.47722 40.053 5.62996 40.053H146.374C149.518 40.053 152.006 37.85 152.006 35.0463V5.00619C152.006 2.29591 149.518 -0.000488281 146.374 -0.000488281Z" fill="black"/>
<path id="Vector_4" d="M76.6757 21.8295C73.9737 21.8295 71.8349 23.6319 71.8349 26.1419C71.8349 28.5451 73.9737 30.4411 76.6757 30.4411C79.3776 30.4411 81.5178 28.6386 81.5178 26.1419C81.5178 23.5384 79.3776 21.8295 76.6757 21.8295ZM76.6757 28.6385C75.2123 28.6385 73.9737 27.5438 73.9737 26.0351C73.9737 24.5398 75.2123 23.4317 76.6757 23.4317C78.1403 23.4317 79.3777 24.433 79.3777 26.0351C79.3777 27.5438 78.1403 28.6385 76.6757 28.6385ZM66.2049 21.8295C63.5016 21.8295 61.3628 23.6319 61.3628 26.1419C61.3628 28.5451 63.5016 30.4411 66.2049 30.4411C68.9069 30.4411 71.047 28.6386 71.047 26.1419C71.047 23.5384 68.9069 21.8295 66.2049 21.8295ZM66.2049 28.6385C64.7416 28.6385 63.5016 27.5438 63.5016 26.0351C63.5016 24.5398 64.7416 23.4317 66.2049 23.4317C67.6682 23.4317 68.9069 24.433 68.9069 26.0351C68.9069 27.5438 67.6682 28.6385 66.2049 28.6385ZM53.7063 23.1379V24.9404H58.5485C58.4361 25.9417 57.9853 26.7428 57.4222 27.2368C56.7467 27.8376 55.6204 28.5452 53.7063 28.5452C50.6673 28.5452 48.4148 26.4357 48.4148 23.7388C48.4148 21.0285 50.7797 18.9324 53.7063 18.9324C55.2834 18.9324 56.522 19.5332 57.4222 20.2274L58.8855 18.9324C57.6483 17.9311 56.0712 17.1299 53.8201 17.1299C49.7658 17.1299 46.2759 20.134 46.2759 23.7388C46.2759 27.3436 49.7658 30.3475 53.8201 30.3475C56.0712 30.3475 57.6482 29.7468 58.9992 28.4384C60.3502 27.2368 60.7996 25.5412 60.7996 24.2328C60.7996 23.8322 60.7996 23.4316 60.6873 23.1379H53.7063ZM104.824 24.5398C104.373 23.5385 103.247 21.8295 100.771 21.8295C98.294 21.8295 96.2675 23.5384 96.2675 26.1419C96.2675 28.5451 98.294 30.4411 100.996 30.4411C103.135 30.4411 104.487 29.2394 104.936 28.5452L103.361 27.5438C102.798 28.2381 102.122 28.7455 100.996 28.7455C99.8697 28.7455 99.1942 28.3449 98.6311 27.4371L105.049 25.0338L104.824 24.5398ZM98.294 25.9417C98.294 24.3396 99.7573 23.4317 100.771 23.4317C101.559 23.4317 102.347 23.8322 102.572 24.3395L98.294 25.9417ZM93.0011 30.0405H95.1413V17.5305H93.0011V30.0405ZM89.6237 22.7374C89.0605 22.2301 88.1604 21.7361 87.0341 21.7361C84.6706 21.7361 82.418 23.6319 82.418 26.0351C82.418 28.4383 84.5569 30.2408 87.0341 30.2408C88.1604 30.2408 89.0606 29.7468 89.5113 29.2394H89.6237V29.8402C89.6237 31.4423 88.6111 32.3502 87.0341 32.3502C85.7955 32.3502 84.8952 31.5491 84.6705 30.8415L82.8688 31.5492C83.4319 32.644 84.7829 34.0458 87.1477 34.0458C89.6236 34.0458 91.6502 32.7507 91.6502 29.6399V22.0298H89.6237V22.7374ZM87.1477 28.6385C85.6831 28.6385 84.4445 27.5438 84.4445 26.0351C84.4445 24.5398 85.6831 23.4317 87.1477 23.4317C88.6111 23.4317 89.7374 24.5398 89.7374 26.0351C89.7374 27.5438 88.6111 28.6385 87.1477 28.6385ZM114.619 17.5305H109.553V30.0405H111.691V25.3408H114.619C116.984 25.3408 119.235 23.8323 119.235 21.4291C119.235 19.0258 116.984 17.5305 114.619 17.5305ZM114.732 23.5385H111.691V19.2261H114.732C116.309 19.2261 117.209 20.4276 117.209 21.3355C117.097 22.4303 116.195 23.5385 114.732 23.5385ZM127.681 21.7361C126.104 21.7361 124.528 22.3368 123.965 23.6319L125.878 24.3395C126.329 23.6319 127.004 23.4317 127.793 23.4317C128.918 23.4317 129.932 24.0325 130.045 25.0338V25.1405C129.708 24.9403 128.806 24.6332 127.906 24.6332C125.878 24.6332 123.852 25.6347 123.852 27.4371C123.852 29.146 125.541 30.2408 127.343 30.2408C128.806 30.2408 129.481 29.6399 130.045 29.0391H130.157V30.0405H132.183V25.2341C131.959 23.0312 130.045 21.7361 127.681 21.7361ZM127.455 28.6385C126.78 28.6385 125.767 28.3449 125.767 27.5438C125.767 26.5425 127.004 26.2354 128.018 26.2354C128.918 26.2354 129.369 26.4356 129.932 26.6359C129.708 27.8375 128.581 28.6385 127.455 28.6385ZM139.271 22.0298L136.917 27.4371H136.797L134.322 22.0298H132.071L135.794 29.6399L133.653 33.8455H135.794L141.532 22.0298H139.271ZM120.362 30.0405H122.501V17.5305H120.362V30.0405Z" fill="white"/>
<path id="Vector_5" d="M11.7098 7.50342C11.3727 7.81049 11.2603 8.31783 11.2603 8.91864V31.0415C11.2603 31.6423 11.485 32.1364 11.8221 32.4434L11.9357 32.5502L25.8963 20.1202V19.9201L11.7098 7.50342Z" fill="url(#paint0_linear_4720_380633)"/>
<path id="Vector_6" d="M30.3993 24.3255L25.7832 20.2268V19.9197L30.3993 15.8208L30.5116 15.9144L36.0292 18.7181C37.6049 19.5191 37.6049 20.8275 36.0292 21.6285L30.3993 24.3255Z" fill="url(#paint1_linear_4720_380633)"/>
<path id="Vector_7" d="M30.5117 24.232L25.7833 20.0264L11.709 32.5497C12.2722 33.0437 13.0599 33.0437 14.0738 32.6431L30.5117 24.232Z" fill="url(#paint2_linear_4720_380633)"/>
<path id="Vector_8" d="M30.5117 15.8203L14.0738 7.50258C13.0599 7.00859 12.2722 7.10207 11.709 7.60942L25.7833 20.0259L30.5117 15.8203Z" fill="url(#paint3_linear_4720_380633)"/>
<path id="Vector_9" opacity="0.2" d="M30.3993 24.1255L14.0738 32.3365C13.1723 32.8439 12.3845 32.7371 11.8214 32.3365L11.709 32.4434L11.8214 32.5368C12.3845 32.9374 13.1723 33.0442 14.0738 32.5368L30.3993 24.1255Z" fill="black"/>
<path id="Vector_10" opacity="0.12" d="M11.7098 32.3494C11.3727 32.0424 11.2603 31.5485 11.2603 30.9477V31.0411C11.2603 31.6419 11.485 32.1493 11.8221 32.443V32.3494H11.7098ZM36.03 21.3348L30.4001 24.1385L30.5124 24.232L36.03 21.4283C36.8179 21.0278 37.1563 20.5337 37.1563 20.0264C37.1563 20.5337 36.7055 20.9342 36.03 21.3348Z" fill="black"/>
<path id="Vector_11" opacity="0.25" d="M14.0746 7.61051L36.03 18.7187C36.7055 19.1192 37.1563 19.5197 37.1563 20.0271C37.1563 19.5197 36.8179 19.0257 36.03 18.6251L14.0746 7.50368C12.4975 6.70261 11.2603 7.30339 11.2603 8.90553V9.01236C11.2603 7.50368 12.4975 6.80944 14.0746 7.61051Z" fill="black"/>
<path id="Vector_12" d="M50.2096 9.83976H52.5317V12.7904C52.1706 12.8973 51.8027 12.964 51.4295 13.0174C51.055 13.0708 50.6216 13.0975 50.1294 13.0975C49.0954 13.0975 48.2902 12.8305 47.7137 12.2831C47.1372 11.7357 46.8496 10.9613 46.8496 9.97324C46.8496 9.34573 46.9914 8.79835 47.275 8.31771C47.5612 7.85042 47.9732 7.47659 48.5082 7.23627C49.0446 6.9826 49.6719 6.84912 50.3915 6.84912C51.1205 6.84912 51.8 6.9693 52.4287 7.20962L52.1211 7.83709C51.5045 7.59677 50.9106 7.48994 50.3408 7.48994C49.5088 7.48994 48.8586 7.70355 48.3918 8.14414C47.9237 8.58473 47.6909 9.19887 47.6909 9.97324C47.6909 10.8011 47.9143 11.4152 48.3637 11.8425C48.8158 12.2697 49.4767 12.4833 50.3501 12.4833C50.8237 12.4833 51.2864 12.4299 51.7372 12.3365V10.4674H50.2096V9.83976Z" fill="white"/>
<path id="Vector_13" d="M57.9853 13.0172H54.1772V6.94238H57.9853V7.56984H54.9717V9.5325H57.8034V10.1467H54.9717V12.3897H57.9853V13.0172Z" fill="white"/>
<path id="Vector_14" d="M61.6081 13.0172H60.8136V7.56984H58.6494V6.94238H63.771V7.56984H61.6081V13.0172Z" fill="white"/>
<path id="Vector_15" d="M67.29 13.0172V6.94238H68.0845V13.0172H67.29Z" fill="white"/>
<path id="Vector_16" d="M72.0658 13.0172H71.2727V7.56984H69.1084V6.94238H74.2301V7.56984H72.0658V13.0172Z" fill="white"/>
<path id="Vector_17" d="M83.6785 9.97324C83.6785 10.9479 83.4016 11.709 82.8465 12.2697C82.2954 12.8171 81.5276 13.0975 80.5431 13.0975C79.5373 13.0975 78.7588 12.8305 78.2117 12.2831C77.666 11.7357 77.3931 10.9613 77.3931 9.95996C77.3931 8.97197 77.6673 8.21091 78.2157 7.66352C78.7641 7.11612 79.5426 6.84912 80.5525 6.84912C81.5343 6.84912 82.2995 7.11613 82.8506 7.67688C83.403 8.22428 83.6785 8.9986 83.6785 9.97324ZM78.2344 9.97324C78.2344 10.7877 78.4297 11.4152 78.823 11.8425C79.2189 12.2697 79.7914 12.4833 80.5431 12.4833C81.3002 12.4833 81.8714 12.2697 82.2579 11.8425C82.6445 11.4152 82.8372 10.8011 82.8372 9.97324C82.8372 9.15882 82.6445 8.53138 82.2579 8.11749C81.874 7.69025 81.3069 7.47658 80.5525 7.47658C79.7954 7.47658 79.2189 7.69025 78.823 8.11749C78.4297 8.54473 78.2344 9.15882 78.2344 9.97324Z" fill="white"/>
<path id="Vector_18" d="M90.5436 13.0172H89.6367L85.9034 7.91698H85.8659C85.9154 8.51779 85.9409 9.06516 85.9409 9.55915V13.0172H85.2065V6.94238H86.104L89.828 12.0158H89.8654C89.86 11.9491 89.8466 11.7088 89.8239 11.2949C89.8025 10.8944 89.7945 10.6006 89.7998 10.4271V6.94238H90.5436V13.0172Z" fill="white"/>
</g>
</g>
</g>
</g>
<defs>
<linearGradient id="paint0_linear_4720_380633" x1="18.5783" y1="7.50342" x2="18.5783" y2="32.5502" gradientUnits="userSpaceOnUse">
<stop stop-color="#326DA9"/>
<stop offset="1" stop-color="#88CFBD"/>
</linearGradient>
<linearGradient id="paint1_linear_4720_380633" x1="31.4971" y1="15.8208" x2="31.4971" y2="24.3255" gradientUnits="userSpaceOnUse">
<stop stop-color="#F5A683"/>
<stop offset="1" stop-color="#F9D57C"/>
</linearGradient>
<linearGradient id="paint2_linear_4720_380633" x1="10.9009" y1="33.9999" x2="34.4009" y2="24.4999" gradientUnits="userSpaceOnUse">
<stop stop-color="#8E5292"/>
<stop offset="1" stop-color="#D54E4D"/>
</linearGradient>
<linearGradient id="paint3_linear_4720_380633" x1="14.4009" y1="8.99952" x2="30.9009" y2="29.4995" gradientUnits="userSpaceOnUse">
<stop stop-color="#7ABBAF"/>
<stop offset="1" stop-color="#D3E49F"/>
</linearGradient>
<clipPath id="clip0_4720_380633">
<rect width="152" height="41" fill="white"/>
</clipPath>
</defs>
</svg>
